<svg xmlns="http://www.w3.org/2000/svg" width="26" height="33" fill="none" viewBox="0 0 26 33">
  <path fill="#323DD6" d="M21.938 6.518H4.063c-.431 0-.845.188-1.15.525a1.891 1.891 0 0 0-.475 1.268v17.93a.97.97 0 0 0 .102.438.865.865 0 0 0 .283.326.748.748 0 0 0 .79.04L6.5 25.45l2.886 1.594a.75.75 0 0 0 .728 0L13 25.451l2.886 1.593a.75.75 0 0 0 .728 0l2.886-1.593 2.886 1.593a.748.748 0 0 0 .791-.04.864.864 0 0 0 .283-.325.97.97 0 0 0 .102-.437V8.31c0-.476-.17-.932-.476-1.268a1.552 1.552 0 0 0-1.148-.525Zm0 18.273-2.074-1.145a.751.751 0 0 0-.728 0L16.25 25.24l-2.886-1.594a.751.751 0 0 0-.728 0L9.75 25.24l-2.886-1.594a.751.751 0 0 0-.728 0l-2.074 1.145V8.311h17.875v16.48ZM6.136 20.768a.756.756 0 0 0 .621.05.797.797 0 0 0 .276-.174.89.89 0 0 0 .194-.277l.587-1.298h3.872l.587 1.298a.91.91 0 0 0 .194.277.803.803 0 0 0 .276.173.74.74 0 0 0 .62-.049.83.83 0 0 0 .251-.214.925.925 0 0 0 .157-.304.985.985 0 0 0-.044-.685l-3.25-7.173a.87.87 0 0 0-.3-.362.757.757 0 0 0-.427-.134c-.151 0-.3.046-.428.134a.87.87 0 0 0-.3.362l-3.25 7.173a.97.97 0 0 0 .114.989.83.83 0 0 0 .25.214Zm3.614-5.97 1.123 2.478H8.627l1.123-2.478Zm4.063 1.582c0-.238.085-.466.237-.634a.776.776 0 0 1 .575-.263h1.625V13.69c0-.238.086-.466.238-.634a.776.776 0 0 1 .575-.263c.215 0 .422.095.574.263a.946.946 0 0 1 .238.634v1.793H19.5a.78.78 0 0 1 .575.263.946.946 0 0 1 .238.634.946.946 0 0 1-.238.634.776.776 0 0 1-.575.262h-1.625v1.793a.946.946 0 0 1-.238.634.776.776 0 0 1-.575.263.776.776 0 0 1-.574-.263.946.946 0 0 1-.238-.634v-1.793h-1.625a.776.776 0 0 1-.575-.262.946.946 0 0 1-.238-.634Z"/>
</svg>
