<svg xmlns="http://www.w3.org/2000/svg" width="27" height="33" fill="none" viewBox="0 0 27 33">
  <path fill="#323DD6" d="m22.03 11.263-5.688-6.276a.812.812 0 0 0-.263-.194.747.747 0 0 0-.312-.068h-9.75c-.43 0-.844.189-1.149.525a1.891 1.891 0 0 0-.476 1.268v19.724c0 .475.172.931.476 1.268.305.336.719.525 1.15.525h14.624c.431 0 .845-.189 1.15-.525.304-.337.475-.793.475-1.268V11.897a.977.977 0 0 0-.061-.343.904.904 0 0 0-.176-.291Zm-5.45-3.478 2.914 3.216H16.58V7.785Zm4.063 18.457H6.016V6.518h8.938v5.379c0 .238.086.466.238.634a.776.776 0 0 0 .575.263h4.874v13.448Zm-3.25-8.966a.946.946 0 0 1-.239.634.776.776 0 0 1-.574.263h-6.5a.776.776 0 0 1-.575-.263.946.946 0 0 1-.238-.634.95.95 0 0 1 .238-.634.776.776 0 0 1 .575-.262h6.5c.216 0 .422.094.575.262a.946.946 0 0 1 .237.634Zm0 3.587a.946.946 0 0 1-.239.634.776.776 0 0 1-.574.262h-6.5a.776.776 0 0 1-.575-.262.946.946 0 0 1-.238-.634c0-.238.086-.466.238-.634a.776.776 0 0 1 .575-.263h6.5c.216 0 .422.094.575.263a.946.946 0 0 1 .237.634Z"/>
</svg>
