<svg xmlns="http://www.w3.org/2000/svg" width="27" height="33" fill="none" viewBox="0 0 27 33">
  <path fill="#323DD6" d="m23.667 8.357-9.75-3.586a.74.74 0 0 0-.514 0l-9.75 3.586a.823.823 0 0 0-.402.326.96.96 0 0 0-.154.524v8.966c0 .238.086.466.238.634a.776.776 0 0 0 .575.263.776.776 0 0 0 .574-.263.946.946 0 0 0 .238-.634v-7.722l3.412 1.255c-.906 1.615-1.195 3.562-.801 5.412.393 1.85 1.435 3.453 2.898 4.455-1.828.791-3.408 2.223-4.564 4.18a.987.987 0 0 0 .002 1.004c.06.098.138.182.228.247.09.064.191.109.297.13a.74.74 0 0 0 .32-.005.777.777 0 0 0 .293-.142.866.866 0 0 0 .22-.255c1.531-2.591 3.949-4.076 6.633-4.076s5.102 1.485 6.632 4.076a.82.82 0 0 0 .512.378.75.75 0 0 0 .606-.128.902.902 0 0 0 .35-.56.975.975 0 0 0-.107-.67c-1.156-1.956-2.742-3.388-4.564-4.179 1.461-1.003 2.503-2.604 2.896-4.453.393-1.848.106-3.794-.799-5.409l4.48-1.647a.822.822 0 0 0 .403-.327.96.96 0 0 0 .154-.524.96.96 0 0 0-.154-.524.823.823 0 0 0-.402-.327v-.005Zm-5.132 7.126c0 .85-.182 1.69-.533 2.447a5.272 5.272 0 0 1-1.482 1.911 4.639 4.639 0 0 1-2.108.959 4.441 4.441 0 0 1-2.273-.204 4.828 4.828 0 0 1-1.94-1.322 5.505 5.505 0 0 1-1.183-2.151 5.913 5.913 0 0 1-.167-2.51 5.69 5.69 0 0 1 .886-2.318l3.668 1.345a.741.741 0 0 0 .514 0l3.668-1.345c.618.923.95 2.04.95 3.188ZM13.66 11.85 6.48 9.207l7.18-2.641 7.18 2.641-7.18 2.642Z"/>
</svg>
