<svg xmlns="http://www.w3.org/2000/svg" width="26" height="33" fill="none" viewBox="0 0 26 33">
  <path fill="#323DD6" d="M10.54 22.543c-.04.174-1.03 4.265-6.478 4.265a.776.776 0 0 1-.574-.262.946.946 0 0 1-.238-.634c0-6.01 3.708-7.103 3.865-7.147a.748.748 0 0 1 .616.101.895.895 0 0 1 .37.552c.052.23.02.475-.092.679a.825.825 0 0 1-.5.409c-.09.028-2.277.732-2.595 4.467 3.384-.352 4.023-2.76 4.05-2.872a.894.894 0 0 1 .374-.549.748.748 0 0 1 .617-.096c.209.06.387.209.497.413.11.206.141.45.087.68v-.006Zm9.444-7.553-.484.534v6.537c.001.236-.04.47-.122.69a1.807 1.807 0 0 1-.353.583l-3.486 3.844c-.15.167-.33.3-.526.39a1.487 1.487 0 0 1-1.14.044 1.622 1.622 0 0 1-.734-.552 1.88 1.88 0 0 1-.36-.896l-.546-4.314-4.49-4.954-3.907-.602a1.556 1.556 0 0 1-.814-.397 1.81 1.81 0 0 1-.502-.811 1.971 1.971 0 0 1-.04-.981c.07-.325.22-.622.435-.857l3.483-3.846c.152-.168.332-.3.53-.39.198-.09.41-.136.624-.135h5.924l.485-.534c2.71-2.99 5.975-3.118 7.252-3.034.396.027.77.212 1.05.522.281.31.45.722.474 1.159.074 1.406-.043 5.01-2.752 8Zm-15.922-.471 3.774.58 4.015-4.429H7.552l-3.49 3.849Zm5.213 1.53L13 20.16l5.835-6.438a8.706 8.706 0 0 0 1.789-3.043 9.382 9.382 0 0 0 .488-3.587 7.123 7.123 0 0 0-3.248.544 7.755 7.755 0 0 0-2.756 1.974l-5.833 6.44Zm8.6 1.268-4.015 4.43.528 4.165 3.487-3.85v-4.745Z"/>
</svg>
