<svg xmlns="http://www.w3.org/2000/svg" width="27" height="33" fill="none" viewBox="0 0 27 33">
  <path fill="#323DD6" d="M9.267 14.257c0-.238.086-.466.238-.634a.776.776 0 0 1 .575-.263h8.125c.216 0 .422.095.575.263a.946.946 0 0 1 .237.634.945.945 0 0 1-.238.634.776.776 0 0 1-.574.262H10.08a.776.776 0 0 1-.575-.262.945.945 0 0 1-.238-.634Zm.813 4.483h8.125a.776.776 0 0 0 .575-.263.946.946 0 0 0 .237-.634.946.946 0 0 0-.238-.634.776.776 0 0 0-.574-.262H10.08a.776.776 0 0 0-.575.262.946.946 0 0 0-.238.634c0 .238.086.466.238.634a.776.776 0 0 0 .575.263Zm13.812-9.862v13.448c0 .713-.256 1.397-.713 1.902a2.328 2.328 0 0 1-1.724.787H3.58a2.327 2.327 0 0 1-1.72-.783 2.835 2.835 0 0 1-.718-1.894v-10.77c0-.239.086-.467.238-.635a.776.776 0 0 1 .575-.262c.215 0 .422.094.575.262a.946.946 0 0 1 .237.634v10.759c0 .238.086.466.238.634a.776.776 0 0 0 .575.262.776.776 0 0 0 .575-.262.946.946 0 0 0 .237-.634V8.878c0-.476.172-.932.476-1.268a1.552 1.552 0 0 1 1.15-.526h16.25c.43 0 .844.19 1.148.526.305.336.476.792.476 1.268Zm-1.625 0H6.017v13.448c0 .305-.046.608-.139.896h15.577a.776.776 0 0 0 .575-.262.946.946 0 0 0 .237-.634V8.878Z"/>
</svg>
