<svg xmlns="http://www.w3.org/2000/svg" width="27" height="33" fill="none" viewBox="0 0 27 33">
  <path fill="#323DD6" d="M13.66 21.43c1.293-.002 2.532-.57 3.446-1.578.914-1.009 1.428-2.376 1.429-3.802V8.877c0-1.426-.514-2.795-1.428-3.803-.914-1.01-2.154-1.576-3.447-1.576-1.293 0-2.533.567-3.447 1.576-.914 1.008-1.428 2.377-1.428 3.803v7.173c.001 1.426.515 2.793 1.43 3.802.913 1.008 2.152 1.576 3.445 1.577ZM10.41 8.876c0-.95.342-1.863.952-2.535.61-.673 1.436-1.05 2.298-1.05.862 0 1.689.377 2.298 1.05.61.672.952 1.584.952 2.535v7.173c0 .95-.342 1.863-.952 2.536-.61.672-1.436 1.05-2.298 1.05-.862 0-1.689-.378-2.298-1.05-.61-.673-.952-1.585-.952-2.536V8.877Zm4.063 16.093v2.735a.946.946 0 0 1-.239.634.776.776 0 0 1-.574.263.776.776 0 0 1-.575-.263.946.946 0 0 1-.238-.634V24.97c-2.003-.226-3.86-1.262-5.21-2.91-1.35-1.648-2.1-3.79-2.102-6.011 0-.238.086-.466.238-.634a.776.776 0 0 1 .574-.263c.216 0 .423.095.575.263a.946.946 0 0 1 .238.634c0 1.902.685 3.726 1.904 5.071 1.219 1.346 2.872 2.101 4.596 2.101 1.724 0 3.377-.756 4.596-2.1 1.22-1.346 1.904-3.17 1.904-5.072 0-.238.086-.466.238-.634a.776.776 0 0 1 .575-.263c.215 0 .422.095.574.263a.946.946 0 0 1 .238.634c-.003 2.222-.752 4.363-2.102 6.011-1.35 1.648-3.207 2.684-5.21 2.91Z"/>
</svg>
